# xmcd
#
# Track frame offsets:
#       225
#       15536
#       34090
#       51127
#       63621
#       76202
#       93447
#       115814
#       132093
#       145306
#       159754
#       172954
#       193180
#       209856
#       222845
#       236439
#
# Disc length: 3328 seconds
#
# Revision: 6
# Processed by: cddbd v1.5.2PL0 Copyright (c) Steve Scherf et al.
# Submitted via: FreeDbEdit v0.1
#
DISCID=dd0cfd10
DTITLE=The Temptations - Masterpiece - Golden Hits
DYEAR=2000
DGENRE=Blues
TTITLE0=Papa Was a Rolling Stone
TTITLE1=Ball of Confusion (That's What the World Is Today)
TTITLE2=Cloud Nine
TTITLE3=I'm Losing You (I Know)
TTITLE4=Beauty Is Only Skin Deep
TTITLE5=Just My Imagination (Running Away With Me)
TTITLE6=Runaway Child (Running Wild)
TTITLE7=Keep On Trucking
TTITLE8=The Way You Do the Things You Do
TTITLE9=I Wish It Would Rain
TTITLE10=Get Ready
TTITLE11=Masterpiece
TTITLE12=Psychedelic Shack
TTITLE13=Ain't to Proud to Beg
TTITLE14=Superstar (Remember How You Got Where You Are)
TTITLE15=My Girl
EXTD=\n YEAR: 2000
EXTT0=
EXTT1=
EXTT2=
EXTT3=
EXTT4=
EXTT5=
EXTT6=
EXTT7=
EXTT8=
EXTT9=
EXTT10=
EXTT11=
EXTT12=
EXTT13=
EXTT14=
EXTT15=
PLAYORDER=
